# xmcd
#
# Track frame offsets: 
#        150
#        8362
#        24387
#        40061
#        57671
#        74147
#        89500
#        109937
#        130048
#        150506
#        170052
#        186559
#        203828
#        218437
#        234082
#        251791
#        265364
#
# Disc length: 3843 seconds
#
# Revision: 0
# Processed by: cddbd v1.5.2PL0 Copyright (c) Steve Scherf et al.
# Submitted via: ExactAudioCopy v1.0b1
#
DISCID=ee0f0111
DTITLE=Massiv - Der Ghettotraum In Handarbeit
DYEAR=2009
DGENRE=Hip-Hop
TTITLE0=Intro (Sony Rechtsabteilung)
TTITLE1=Welcome To The Ghetto
TTITLE2=Eiszeit (Feat. Basstard)
TTITLE3=Original Massiv
TTITLE4=Gangster-Rap Tag Team (Feat. Beirut)
TTITLE5=Nananana
TTITLE6=Oberarme Angespannt (Feat. Kollegah)
TTITLE7=Falls Es Nicht Klappt
TTITLE8=Das Ist Die Strasse (Feat. Sido)
TTITLE9=Sternenstaub (Feat. Ziya)
TTITLE10=Der Ghettotraum In Handarbeit
TTITLE11=Ibrahim Und Bilal
TTITLE12=Wir Sind Fleischfresser (Feat. Beirut)
TTITLE13=Guck Wie Du Guckst
TTITLE14=Du Kannst Diesen Weg Nicht Alleine Gehen (Feat. Senna)
TTITLE15=My Life
TTITLE16=Al Massiva Kommt (Feat. Beirut)
EXTD=
EXTT0=
EXTT1=
EXTT2=
EXTT3=
EXTT4=
EXTT5=
EXTT6=
EXTT7=
EXTT8=
EXTT9=
EXTT10=
EXTT11=
EXTT12=
EXTT13=
EXTT14=
EXTT15=
EXTT16=
PLAYORDER=
